<svg width="15" height="14" viewBox="0 0 15 14" fill="none" xmlns="http://www.w3.org/2000/svg">
<path d="M1 1.99417V5.74417M1 5.74417H4.75M1 5.74417L3.9 3.01917C4.76307 2.15756 5.88278 1.59978 7.09042 1.42987C8.29806 1.25996 9.52822 1.48713 10.5955 2.07715C11.6628 2.66717 12.5095 3.58807 13.0079 4.70111C13.5063 5.81414 13.6295 7.05901 13.3589 8.24815C13.0883 9.43728 12.4385 10.5063 11.5076 11.294C10.5766 12.0818 9.41484 12.5456 8.19732 12.6157C6.9798 12.6858 5.77249 12.3583 4.75729 11.6825C3.74208 11.0068 2.974 10.0194 2.56875 8.86917" stroke="white" stroke-width="2" stroke-linecap="round" stroke-linejoin="round"/>
</svg>
