<svg width="13" height="12" viewBox="0 0 13 12" fill="none" xmlns="http://www.w3.org/2000/svg">
<path d="M0.875 11.625V8.96875L9.125 0.734375C9.25 0.619792 9.38802 0.53125 9.53906 0.46875C9.6901 0.40625 9.84896 0.375 10.0156 0.375C10.1823 0.375 10.3438 0.40625 10.5 0.46875C10.6562 0.53125 10.7917 0.625 10.9063 0.75L11.7656 1.625C11.8906 1.73958 11.9818 1.875 12.0391 2.03125C12.0964 2.1875 12.125 2.34375 12.125 2.5C12.125 2.66667 12.0964 2.82552 12.0391 2.97656C11.9818 3.1276 11.8906 3.26563 11.7656 3.39063L3.53125 11.625H0.875ZM10 3.375L10.875 2.5L10 1.625L9.125 2.5L10 3.375Z" fill="#FEF7FF"/>
</svg>
