<svg width="83" height="16" viewBox="0 0 83 16" fill="none" xmlns="http://www.w3.org/2000/svg">
<path d="M12.5361 15.0107H6.90723V5.14941H0.214844V0.573242H19.2285V5.14941H12.5361V15.0107ZM29.5195 0.197266C34.9551 0.197266 39.3701 1.78711 39.3701 7.24414V8.29688C39.3916 13.7539 34.9443 15.333 29.5195 15.3438C24.084 15.333 19.6367 13.7539 19.6582 8.29688V7.24414C19.6367 1.77637 24.084 0.208008 29.5195 0.197266ZM33.7412 7.94238V7.58789C33.7734 5.23535 31.8184 4.80566 29.5195 4.77344C27.21 4.80566 25.2549 5.23535 25.2871 7.58789V7.94238C25.2549 10.3057 27.21 10.7354 29.5195 10.7676C31.8184 10.7354 33.7734 10.3057 33.7412 7.94238ZM55.1396 7.79199C55.1396 6.33105 54.3125 5.14941 52.8516 5.14941H46.6855V10.4346H52.8516C54.3125 10.4346 55.1396 9.24219 55.1396 7.79199ZM41.0566 0.573242H53.9043C57.8682 0.519531 60.8115 3.84961 60.7793 7.79199C60.8115 11.7129 57.8682 15.0645 53.9043 15.0107H41.0566V0.573242ZM72.1445 0.197266C77.5801 0.197266 81.9951 1.78711 81.9951 7.24414V8.29688C82.0166 13.7539 77.5693 15.333 72.1445 15.3438C66.709 15.333 62.2617 13.7539 62.2832 8.29688V7.24414C62.2617 1.77637 66.709 0.208008 72.1445 0.197266ZM76.3662 7.94238V7.58789C76.3984 5.23535 74.4434 4.80566 72.1445 4.77344C69.835 4.80566 67.8799 5.23535 67.9121 7.58789V7.94238C67.8799 10.3057 69.835 10.7354 72.1445 10.7676C74.4434 10.7354 76.3984 10.3057 76.3662 7.94238Z" fill="white"/>
</svg>
